<?xml version="1.0" standalone="no"?>
<!DOCTYPE svg PUBLIC "-//W3C//DTD SVG 20010904//EN"
 "http://www.w3.org/TR/2001/REC-SVG-20010904/DTD/svg10.dtd">
<svg version="1.0" xmlns="http://www.w3.org/2000/svg"
 width="512.000000pt" height="512.000000pt" viewBox="0 0 512.000000 512.000000"
 preserveAspectRatio="xMidYMid meet">
<metadata>
Created by potrace 1.16, written by Peter Selinger 2001-2019
</metadata>
<g transform="translate(0.000000,512.000000) scale(0.100000,-0.100000)"
fill="#000000" stroke="none">
<path d="M353 5026 c-103 -33 -194 -114 -241 -214 l-27 -57 0 -2195 0 -2195
27 -57 c37 -80 107 -152 187 -191 l66 -32 2195 0 2195 0 66 32 c80 39 150 111
187 191 l27 57 0 2195 0 2195 -32 66 c-39 80 -111 150 -191 187 l-57 27 -2180
2 c-1783 1 -2188 -1 -2222 -11z m4372 -166 c57 -27 92 -60 121 -112 l29 -53 0
-2135 0 -2135 -31 -55 c-38 -68 -108 -114 -186 -123 -69 -9 -4127 -9 -4196 0
-78 9 -148 55 -186 123 l-31 55 -3 2070 c-2 1139 0 2102 3 2142 12 128 86 215
200 234 22 4 987 6 2145 5 1827 -1 2109 -3 2135 -16z"/>
<path d="M1170 4229 c-104 -20 -208 -100 -262 -200 -20 -38 -23 -58 -23 -149
0 -98 2 -109 30 -158 79 -144 247 -223 402 -192 124 25 220 100 272 209 22 47
26 70 26 141 0 71 -4 94 -26 141 -36 75 -86 130 -156 166 -91 48 -169 60 -263
42z m174 -182 c22 -12 53 -39 70 -60 27 -33 31 -47 31 -96 0 -78 -34 -129
-110 -166 -43 -22 -65 -26 -100 -23 -61 7 -114 37 -152 87 -45 58 -46 126 -4
192 54 85 178 116 265 66z"/>
<path d="M3265 3294 c-162 -26 -299 -80 -425 -168 l-78 -55 -4 71 c-6 113 12
108 -372 108 l-323 0 -21 -23 -22 -23 0 -1140 c0 -1134 0 -1140 20 -1162 21
-22 23 -22 409 -22 382 0 388 0 407 21 18 20 19 51 25 698 7 735 10 774 64
867 62 105 161 166 282 172 86 5 127 -7 181 -54 94 -80 101 -157 102 -1036 0
-614 0 -628 20 -648 19 -19 33 -20 348 -20 309 0 330 1 346 19 16 17 17 82 14
897 -3 873 -4 880 -26 958 -39 139 -85 222 -176 312 -70 70 -96 89 -188 133
-152 73 -232 92 -408 96 -80 2 -158 1 -175 -1z m313 -184 c250 -51 406 -188
463 -407 30 -115 38 -346 39 -1050 l0 -613 -204 0 -204 0 -5 673 c-5 732 -7
768 -62 880 -16 31 -48 77 -72 103 -121 126 -345 152 -533 61 -86 -43 -177
-133 -218 -217 -73 -150 -82 -258 -82 -952 l0 -548 -260 0 -260 0 0 1020 0
1020 200 0 200 0 0 -135 c0 -131 1 -137 25 -160 17 -18 35 -25 60 -25 33 0 45
9 123 91 133 140 252 215 398 253 123 31 261 33 392 6z"/>
<path d="M900 3230 c-20 -20 -20 -33 -20 -1168 0 -1100 1 -1150 18 -1165 17
-15 55 -17 345 -17 314 0 328 1 347 20 20 20 20 33 20 1165 0 1132 0 1145 -20
1165 -19 19 -33 20 -345 20 -312 0 -326 -1 -345 -20z m540 -1170 l0 -1020
-200 0 -200 0 0 1020 0 1020 200 0 200 0 0 -1020z"/>
</g>
</svg>
